<svg width="467" height="467" viewBox="0 0 467 467" version="1.1" xmlns="http://www.w3.org/2000/svg" xmlns:xlink="http://www.w3.org/1999/xlink">
<title>Group</title>
<desc>Created using Figma</desc>
<g id="Canvas" transform="translate(-2349 -526)">
<g id="Group">
<g id="Vector">
<use xlink:href="#path0_stroke" transform="translate(2529 539)" fill="#FFFFFF"/>
</g>
<g id="Vector">
<use xlink:href="#path1_stroke" transform="translate(2362 706)" fill="#FFFFFF"/>
</g>
</g>
</g>
<defs>
<path id="path0_stroke" d="M 107.4 396.1L 119.9 396.1L 107.4 396.1ZM 62.1 428.9L 45.3 428.9L 45.3 453.9L 62.1 453.9L 62.1 428.9ZM 45.3 428.9C 27.3036 428.9 12.5 414.096 12.5 396.1L -12.5 396.1C -12.5 427.904 13.4964 453.9 45.3 453.9L 45.3 428.9ZM 12.5 396.1L 12.5 45.3L -12.5 45.3L -12.5 396.1L 12.5 396.1ZM 12.5 45.3C 12.5 27.3036 27.3036 12.5 45.3 12.5L 45.3 -12.5C 13.4964 -12.5 -12.5 13.4964 -12.5 45.3L 12.5 45.3ZM 45.3 12.5L 62.1 12.5L 62.1 -12.5L 45.3 -12.5L 45.3 12.5ZM 62.1 12.5C 80.0964 12.5 94.9 27.3036 94.9 45.3L 119.9 45.3C 119.9 13.4964 93.9036 -12.5 62.1 -12.5L 62.1 12.5ZM 94.9 45.3L 94.9 396.1L 119.9 396.1L 119.9 45.3L 94.9 45.3ZM 94.9 396.1C 94.9 414.114 80.1785 428.9 62.1 428.9L 62.1 453.9C 94.0215 453.9 119.9 427.886 119.9 396.1L 94.9 396.1Z"/>
<path id="path1_stroke" d="M 428.9 45.3L 428.9 62.1L 453.9 62.1L 453.9 45.3L 428.9 45.3ZM 428.9 62.1C 428.9 80.0964 414.096 94.9 396.1 94.9L 396.1 119.9C 427.904 119.9 453.9 93.9036 453.9 62.1L 428.9 62.1ZM 396.1 94.9L 45.3 94.9L 45.3 119.9L 396.1 119.9L 396.1 94.9ZM 45.3 94.9C 27.3036 94.9 12.5 80.0964 12.5 62.1L -12.5 62.1C -12.5 93.9036 13.4964 119.9 45.3 119.9L 45.3 94.9ZM 12.5 62.1L 12.5 45.3L -12.5 45.3L -12.5 62.1L 12.5 62.1ZM 12.5 45.3C 12.5 27.3036 27.3036 12.5 45.3 12.5L 45.3 -12.5C 13.4964 -12.5 -12.5 13.4964 -12.5 45.3L 12.5 45.3ZM 45.3 12.5L 396.1 12.5L 396.1 -12.5L 45.3 -12.5L 45.3 12.5ZM 396.1 12.5C 414.096 12.5 428.9 27.3036 428.9 45.3L 453.9 45.3C 453.9 13.4964 427.904 -12.5 396.1 -12.5L 396.1 12.5Z"/>
</defs>
</svg>
