<svg width="1111" height="194" viewBox="0 0 1111 194" version="1.1" xmlns="http://www.w3.org/2000/svg" xmlns:xlink="http://www.w3.org/1999/xlink">
<title>Start planning now So that you&#226;&#128;&#153;re prepared when it counts</title>
<desc>Created using Figma</desc>
<g id="Canvas" transform="translate(-2356 -1119)">
<g id="Start planning now So that you&#226;&#128;&#153;re prepared when it counts">
<use xlink:href="#path0_fill" transform="translate(2356 1096)" fill="#FFFFFF"/>
</g>
</g>
<defs>
<path id="path0_fill" d="M 42.144 42.24C 40.864 40.576 39.04 39.2 36.672 38.112C 34.368 36.96 32.032 36.384 29.664 36.384C 28.256 36.384 26.848 36.576 25.44 36.96C 24.032 37.28 22.752 37.824 21.6 38.592C 20.448 39.296 19.488 40.256 18.72 41.472C 18.016 42.624 17.664 44.032 17.664 45.696C 17.664 47.232 17.984 48.544 18.624 49.632C 19.264 50.72 20.128 51.648 21.216 52.416C 22.368 53.184 23.744 53.856 25.344 54.432C 26.944 55.008 28.704 55.584 30.624 56.16C 32.8 56.864 35.04 57.664 37.344 58.56C 39.712 59.456 41.856 60.64 43.776 62.112C 45.76 63.584 47.36 65.44 48.576 67.68C 49.856 69.92 50.496 72.704 50.496 76.032C 50.496 79.68 49.824 82.88 48.48 85.632C 47.136 88.32 45.344 90.56 43.104 92.352C 40.864 94.144 38.24 95.488 35.232 96.384C 32.224 97.28 29.056 97.728 25.728 97.728C 21.312 97.728 16.992 96.928 12.768 95.328C 8.544 93.664 5.088 91.232 2.4 88.032L 11.04 79.968C 12.704 82.272 14.912 84.096 17.664 85.44C 20.48 86.784 23.232 87.456 25.92 87.456C 27.328 87.456 28.768 87.296 30.24 86.976C 31.712 86.592 33.024 85.984 34.176 85.152C 35.392 84.32 36.352 83.296 37.056 82.08C 37.824 80.8 38.208 79.232 38.208 77.376C 38.208 75.584 37.792 74.112 36.96 72.96C 36.128 71.744 35.008 70.72 33.6 69.888C 32.192 68.992 30.528 68.224 28.608 67.584C 26.688 66.944 24.672 66.272 22.56 65.568C 20.512 64.928 18.464 64.16 16.416 63.264C 14.368 62.368 12.512 61.184 10.848 59.712C 9.248 58.24 7.936 56.448 6.912 54.336C 5.888 52.16 5.376 49.472 5.376 46.272C 5.376 42.816 6.08 39.84 7.488 37.344C 8.96 34.848 10.848 32.8 13.152 31.2C 15.52 29.536 18.176 28.32 21.12 27.552C 24.128 26.72 27.168 26.304 30.24 26.304C 33.696 26.304 37.184 26.912 40.704 28.128C 44.288 29.344 47.392 31.168 50.016 33.6L 42.144 42.24ZM 54.8505 59.136L 54.8505 49.92L 62.9145 49.92L 62.9145 36.576L 74.2425 36.576L 74.2425 49.92L 85.7625 49.92L 85.7625 59.136L 74.2425 59.136L 74.2425 80.544C 74.2425 82.592 74.5945 84.288 75.2985 85.632C 76.0665 86.976 77.7305 87.648 80.2905 87.648C 81.0585 87.648 81.8905 87.584 82.7865 87.456C 83.6825 87.264 84.4825 87.008 85.1865 86.688L 85.5705 95.712C 84.5465 96.096 83.3305 96.384 81.9225 96.576C 80.5145 96.832 79.1705 96.96 77.8905 96.96C 74.8185 96.96 72.3225 96.544 70.4025 95.712C 68.4825 94.816 66.9465 93.632 65.7945 92.16C 64.7065 90.624 63.9385 88.896 63.4905 86.976C 63.1065 84.992 62.9145 82.88 62.9145 80.64L 62.9145 59.136L 54.8505 59.136ZM 122.708 90.144L 122.42 90.144C 121.267 92.192 119.411 93.888 116.851 95.232C 114.292 96.512 111.38 97.152 108.115 97.152C 106.259 97.152 104.307 96.896 102.26 96.384C 100.275 95.936 98.4195 95.168 96.6915 94.08C 95.0275 92.928 93.6195 91.456 92.4675 89.664C 91.3795 87.808 90.8355 85.536 90.8355 82.848C 90.8355 79.392 91.7955 76.64 93.7155 74.592C 95.6995 72.544 98.2275 70.976 101.299 69.888C 104.372 68.8 107.764 68.096 111.475 67.776C 115.252 67.392 118.931 67.2 122.516 67.2L 122.516 66.048C 122.516 63.168 121.459 61.056 119.348 59.712C 117.3 58.304 114.835 57.6 111.955 57.6C 109.524 57.6 107.187 58.112 104.948 59.136C 102.707 60.16 100.851 61.408 99.3795 62.88L 93.4275 55.872C 96.0515 53.44 99.0595 51.616 102.451 50.4C 105.907 49.184 109.395 48.576 112.916 48.576C 117.012 48.576 120.372 49.152 122.995 50.304C 125.683 51.456 127.796 52.96 129.332 54.816C 130.868 56.672 131.923 58.752 132.5 61.056C 133.139 63.36 133.459 65.664 133.459 67.968L 133.459 96L 122.708 96L 122.708 90.144ZM 122.516 74.976L 119.923 74.976C 118.067 74.976 116.116 75.072 114.068 75.264C 112.019 75.392 110.131 75.744 108.404 76.32C 106.675 76.832 105.235 77.6 104.083 78.624C 102.932 79.584 102.356 80.928 102.356 82.656C 102.356 83.744 102.58 84.672 103.028 85.44C 103.54 86.144 104.18 86.72 104.948 87.168C 105.716 87.616 106.58 87.936 107.539 88.128C 108.5 88.32 109.459 88.416 110.419 88.416C 114.387 88.416 117.395 87.36 119.443 85.248C 121.491 83.136 122.516 80.256 122.516 76.608L 122.516 74.976ZM 146.881 49.92L 157.921 49.92L 157.921 57.6L 158.113 57.6C 159.393 54.912 161.185 52.736 163.489 51.072C 165.793 49.408 168.481 48.576 171.553 48.576C 172.001 48.576 172.481 48.608 172.993 48.672C 173.505 48.672 173.953 48.736 174.337 48.864L 174.337 59.424C 173.569 59.232 172.897 59.104 172.321 59.04C 171.809 58.976 171.297 58.944 170.785 58.944C 168.161 58.944 166.049 59.424 164.449 60.384C 162.849 61.344 161.601 62.496 160.705 63.84C 159.809 65.184 159.201 66.56 158.881 67.968C 158.561 69.376 158.401 70.496 158.401 71.328L 158.401 96L 146.881 96L 146.881 49.92ZM 174.101 59.136L 174.101 49.92L 182.164 49.92L 182.164 36.576L 193.492 36.576L 193.492 49.92L 205.012 49.92L 205.012 59.136L 193.492 59.136L 193.492 80.544C 193.492 82.592 193.845 84.288 194.549 85.632C 195.317 86.976 196.981 87.648 199.541 87.648C 200.308 87.648 201.14 87.584 202.036 87.456C 202.933 87.264 203.733 87.008 204.437 86.688L 204.821 95.712C 203.797 96.096 202.581 96.384 201.172 96.576C 199.764 96.832 198.42 96.96 197.141 96.96C 194.068 96.96 191.573 96.544 189.653 95.712C 187.732 94.816 186.196 93.632 185.044 92.16C 183.957 90.624 183.188 88.896 182.741 86.976C 182.357 84.992 182.164 82.88 182.164 80.64L 182.164 59.136L 174.101 59.136ZM 248.39 49.92L 248.39 56.352L 248.677 56.352C 249.253 55.456 249.99 54.56 250.885 53.664C 251.846 52.704 252.997 51.872 254.341 51.168C 255.686 50.4 257.19 49.792 258.854 49.344C 260.582 48.832 262.501 48.576 264.614 48.576C 267.877 48.576 270.886 49.216 273.637 50.496C 276.389 51.712 278.757 53.408 280.741 55.584C 282.725 57.76 284.262 60.32 285.35 63.264C 286.437 66.208 286.981 69.376 286.981 72.768C 286.981 76.16 286.437 79.36 285.35 82.368C 284.326 85.312 282.822 87.904 280.837 90.144C 278.917 92.32 276.549 94.08 273.734 95.424C 270.981 96.704 267.846 97.344 264.325 97.344C 261.062 97.344 258.054 96.672 255.302 95.328C 252.614 93.984 250.533 92.16 249.062 89.856L 248.87 89.856L 248.87 119.04L 237.349 119.04L 237.349 49.92L 248.39 49.92ZM 275.27 72.768C 275.27 70.976 274.981 69.216 274.406 67.488C 273.894 65.696 273.094 64.096 272.005 62.688C 270.917 61.28 269.542 60.16 267.877 59.328C 266.213 58.432 264.262 57.984 262.021 57.984C 259.91 57.984 258.022 58.432 256.358 59.328C 254.693 60.224 253.253 61.376 252.037 62.784C 250.885 64.192 249.99 65.792 249.349 67.584C 248.773 69.376 248.485 71.168 248.485 72.96C 248.485 74.752 248.773 76.544 249.349 78.336C 249.99 80.064 250.885 81.632 252.037 83.04C 253.253 84.448 254.693 85.6 256.358 86.496C 258.022 87.328 259.91 87.744 262.021 87.744C 264.262 87.744 266.213 87.296 267.877 86.4C 269.542 85.504 270.917 84.352 272.005 82.944C 273.094 81.536 273.894 79.936 274.406 78.144C 274.981 76.352 275.27 74.56 275.27 72.768ZM 298.292 23.424L 309.812 23.424L 309.812 96L 298.292 96L 298.292 23.424ZM 352.395 90.144L 352.107 90.144C 350.955 92.192 349.099 93.888 346.539 95.232C 343.979 96.512 341.067 97.152 337.803 97.152C 335.947 97.152 333.995 96.896 331.947 96.384C 329.963 95.936 328.107 95.168 326.379 94.08C 324.715 92.928 323.307 91.456 322.155 89.664C 321.067 87.808 320.523 85.536 320.523 82.848C 320.523 79.392 321.483 76.64 323.403 74.592C 325.387 72.544 327.915 70.976 330.987 69.888C 334.059 68.8 337.451 68.096 341.163 67.776C 344.939 67.392 348.619 67.2 352.203 67.2L 352.203 66.048C 352.203 63.168 351.147 61.056 349.035 59.712C 346.987 58.304 344.523 57.6 341.643 57.6C 339.211 57.6 336.875 58.112 334.635 59.136C 332.395 60.16 330.539 61.408 329.067 62.88L 323.115 55.872C 325.739 53.44 328.747 51.616 332.139 50.4C 335.595 49.184 339.083 48.576 342.603 48.576C 346.699 48.576 350.059 49.152 352.683 50.304C 355.371 51.456 357.483 52.96 359.019 54.816C 360.555 56.672 361.611 58.752 362.187 61.056C 362.827 63.36 363.147 65.664 363.147 67.968L 363.147 96L 352.395 96L 352.395 90.144ZM 352.203 74.976L 349.611 74.976C 347.755 74.976 345.803 75.072 343.755 75.264C 341.707 75.392 339.819 75.744 338.091 76.32C 336.363 76.832 334.923 77.6 333.771 78.624C 332.619 79.584 332.043 80.928 332.043 82.656C 332.043 83.744 332.267 84.672 332.715 85.44C 333.227 86.144 333.867 86.72 334.635 87.168C 335.403 87.616 336.267 87.936 337.227 88.128C 338.187 88.32 339.147 88.416 340.107 88.416C 344.075 88.416 347.083 87.36 349.131 85.248C 351.179 83.136 352.203 80.256 352.203 76.608L 352.203 74.976ZM 376.568 49.92L 387.512 49.92L 387.512 57.312L 387.704 57.312C 388.728 55.008 390.488 52.992 392.984 51.264C 395.544 49.472 398.552 48.576 402.008 48.576C 405.016 48.576 407.576 49.12 409.688 50.208C 411.864 51.232 413.624 52.608 414.968 54.336C 416.376 56.064 417.4 58.048 418.04 60.288C 418.68 62.528 419 64.832 419 67.2L 419 96L 407.48 96L 407.48 70.464C 407.48 69.12 407.384 67.712 407.192 66.24C 407 64.768 406.584 63.456 405.944 62.304C 405.304 61.088 404.408 60.096 403.256 59.328C 402.168 58.56 400.696 58.176 398.84 58.176C 396.984 58.176 395.384 58.56 394.04 59.328C 392.696 60.032 391.576 60.96 390.68 62.112C 389.848 63.264 389.208 64.608 388.76 66.144C 388.312 67.616 388.088 69.12 388.088 70.656L 388.088 96L 376.568 96L 376.568 49.92ZM 432.443 49.92L 443.387 49.92L 443.387 57.312L 443.579 57.312C 444.603 55.008 446.363 52.992 448.859 51.264C 451.419 49.472 454.427 48.576 457.883 48.576C 460.891 48.576 463.451 49.12 465.563 50.208C 467.739 51.232 469.499 52.608 470.843 54.336C 472.251 56.064 473.275 58.048 473.915 60.288C 474.555 62.528 474.875 64.832 474.875 67.2L 474.875 96L 463.355 96L 463.355 70.464C 463.355 69.12 463.259 67.712 463.067 66.24C 462.875 64.768 462.459 63.456 461.819 62.304C 461.179 61.088 460.283 60.096 459.131 59.328C 458.043 58.56 456.571 58.176 454.715 58.176C 452.859 58.176 451.259 58.56 449.915 59.328C 448.571 60.032 447.451 60.96 446.555 62.112C 445.723 63.264 445.083 64.608 444.635 66.144C 444.187 67.616 443.963 69.12 443.963 70.656L 443.963 96L 432.443 96L 432.443 49.92ZM 488.51 49.92L 500.03 49.92L 500.03 96L 488.51 96L 488.51 49.92ZM 486.878 34.272C 486.878 32.416 487.55 30.816 488.894 29.472C 490.302 28.064 492.062 27.36 494.174 27.36C 496.286 27.36 498.046 28.032 499.454 29.376C 500.926 30.656 501.662 32.288 501.662 34.272C 501.662 36.256 500.926 37.92 499.454 39.264C 498.046 40.544 496.286 41.184 494.174 41.184C 492.062 41.184 490.302 40.512 488.894 39.168C 487.55 37.76 486.878 36.128 486.878 34.272ZM 514.006 49.92L 524.95 49.92L 524.95 57.312L 525.142 57.312C 526.166 55.008 527.926 52.992 530.422 51.264C 532.982 49.472 535.99 48.576 539.446 48.576C 542.454 48.576 545.014 49.12 547.126 50.208C 549.302 51.232 551.062 52.608 552.406 54.336C 553.814 56.064 554.838 58.048 555.478 60.288C 556.118 62.528 556.438 64.832 556.438 67.2L 556.438 96L 544.918 96L 544.918 70.464C 544.918 69.12 544.822 67.712 544.63 66.24C 544.438 64.768 544.022 63.456 543.382 62.304C 542.742 61.088 541.846 60.096 540.694 59.328C 539.606 58.56 538.134 58.176 536.278 58.176C 534.422 58.176 532.822 58.56 531.478 59.328C 530.134 60.032 529.014 60.96 528.118 62.112C 527.286 63.264 526.646 64.608 526.198 66.144C 525.75 67.616 525.526 69.12 525.526 70.656L 525.526 96L 514.006 96L 514.006 49.92ZM 616.729 49.92L 616.729 91.872C 616.729 96.032 616.217 99.776 615.193 103.104C 614.169 106.496 612.569 109.344 610.393 111.648C 608.281 114.016 605.593 115.84 602.329 117.12C 599.065 118.4 595.193 119.04 590.713 119.04C 588.857 119.04 586.873 118.88 584.761 118.56C 582.713 118.24 580.665 117.76 578.617 117.12C 576.633 116.48 574.713 115.68 572.857 114.72C 571.001 113.76 569.337 112.672 567.865 111.456L 574.489 102.528C 576.729 104.64 579.257 106.24 582.073 107.328C 584.889 108.48 587.737 109.056 590.617 109.056C 593.369 109.056 595.673 108.64 597.529 107.808C 599.449 107.04 600.953 105.952 602.041 104.544C 603.193 103.136 603.993 101.472 604.441 99.552C 604.953 97.632 605.209 95.52 605.209 93.216L 605.209 89.856L 605.017 89.856C 603.353 92.096 601.209 93.824 598.585 95.04C 596.025 96.192 593.145 96.768 589.945 96.768C 586.489 96.768 583.353 96.128 580.537 94.848C 577.721 93.568 575.321 91.84 573.337 89.664C 571.417 87.488 569.913 84.96 568.825 82.08C 567.737 79.136 567.193 76.032 567.193 72.768C 567.193 69.44 567.705 66.304 568.729 63.36C 569.817 60.416 571.321 57.856 573.241 55.68C 575.225 53.504 577.593 51.776 580.345 50.496C 583.161 49.216 586.297 48.576 589.753 48.576C 593.017 48.576 596.057 49.248 598.873 50.592C 601.689 51.936 603.929 54.016 605.593 56.832L 605.785 56.832L 605.785 49.92L 616.729 49.92ZM 592.153 57.984C 590.041 57.984 588.153 58.368 586.489 59.136C 584.889 59.904 583.513 60.96 582.361 62.304C 581.273 63.584 580.409 65.12 579.769 66.912C 579.193 68.704 578.905 70.624 578.905 72.672C 578.905 74.528 579.193 76.32 579.769 78.048C 580.409 79.776 581.273 81.344 582.361 82.752C 583.513 84.096 584.889 85.184 586.489 86.016C 588.153 86.848 590.009 87.264 592.057 87.264C 594.169 87.264 596.057 86.88 597.721 86.112C 599.449 85.28 600.889 84.192 602.041 82.848C 603.257 81.504 604.185 79.968 604.825 78.24C 605.465 76.448 605.785 74.592 605.785 72.672C 605.785 70.688 605.465 68.8 604.825 67.008C 604.185 65.216 603.257 63.648 602.041 62.304C 600.889 60.96 599.481 59.904 597.817 59.136C 596.153 58.368 594.265 57.984 592.153 57.984ZM 654.537 49.92L 665.481 49.92L 665.481 57.312L 665.673 57.312C 666.697 55.008 668.457 52.992 670.953 51.264C 673.513 49.472 676.521 48.576 679.977 48.576C 682.985 48.576 685.545 49.12 687.657 50.208C 689.833 51.232 691.593 52.608 692.937 54.336C 694.345 56.064 695.369 58.048 696.009 60.288C 696.649 62.528 696.969 64.832 696.969 67.2L 696.969 96L 685.449 96L 685.449 70.464C 685.449 69.12 685.353 67.712 685.161 66.24C 684.969 64.768 684.553 63.456 683.913 62.304C 683.273 61.088 682.377 60.096 681.225 59.328C 680.137 58.56 678.665 58.176 676.809 58.176C 674.953 58.176 673.353 58.56 672.009 59.328C 670.665 60.032 669.545 60.96 668.649 62.112C 667.817 63.264 667.177 64.608 666.729 66.144C 666.281 67.616 666.057 69.12 666.057 70.656L 666.057 96L 654.537 96L 654.537 49.92ZM 707.724 72.768C 707.724 69.12 708.364 65.824 709.644 62.88C 710.988 59.872 712.78 57.312 715.02 55.2C 717.26 53.088 719.916 51.456 722.988 50.304C 726.06 49.152 729.324 48.576 732.78 48.576C 736.236 48.576 739.5 49.152 742.572 50.304C 745.644 51.456 748.3 53.088 750.54 55.2C 752.78 57.312 754.54 59.872 755.82 62.88C 757.164 65.824 757.836 69.12 757.836 72.768C 757.836 76.416 757.164 79.744 755.82 82.752C 754.54 85.76 752.78 88.352 750.54 90.528C 748.3 92.64 745.644 94.304 742.572 95.52C 739.5 96.736 736.236 97.344 732.78 97.344C 729.324 97.344 726.06 96.736 722.988 95.52C 719.916 94.304 717.26 92.64 715.02 90.528C 712.78 88.352 710.988 85.76 709.644 82.752C 708.364 79.744 707.724 76.416 707.724 72.768ZM 719.436 72.768C 719.436 74.56 719.692 76.352 720.204 78.144C 720.78 79.936 721.612 81.536 722.7 82.944C 723.788 84.352 725.164 85.504 726.828 86.4C 728.492 87.296 730.476 87.744 732.78 87.744C 735.084 87.744 737.068 87.296 738.732 86.4C 740.396 85.504 741.772 84.352 742.86 82.944C 743.948 81.536 744.748 79.936 745.26 78.144C 745.836 76.352 746.124 74.56 746.124 72.768C 746.124 70.976 745.836 69.216 745.26 67.488C 744.748 65.696 743.948 64.096 742.86 62.688C 741.772 61.28 740.396 60.16 738.732 59.328C 737.068 58.432 735.084 57.984 732.78 57.984C 730.476 57.984 728.492 58.432 726.828 59.328C 725.164 60.16 723.788 61.28 722.7 62.688C 721.612 64.096 720.78 65.696 720.204 67.488C 719.692 69.216 719.436 70.976 719.436 72.768ZM 762.478 49.92L 774.958 49.92L 784.558 82.944L 784.75 82.944L 794.638 49.92L 806.926 49.92L 816.91 82.944L 817.102 82.944L 826.894 49.92L 838.894 49.92L 822.958 96L 811.246 96L 800.782 63.744L 800.59 63.744L 790.222 96L 778.51 96L 762.478 49.92ZM 31.424 162.728C 30.6133 161.533 29.44 160.531 27.904 159.72C 26.368 158.909 24.576 158.504 22.528 158.504C 21.2053 158.504 19.8827 158.696 18.56 159.08C 17.2373 159.421 16.0427 159.976 14.976 160.744C 13.9093 161.469 13.0347 162.408 12.352 163.56C 11.712 164.669 11.392 166.013 11.392 167.592C 11.392 168.787 11.6053 169.811 12.032 170.664C 12.4587 171.517 13.0347 172.264 13.76 172.904C 14.528 173.544 15.4027 174.099 16.384 174.568C 17.408 175.037 18.496 175.485 19.648 175.912C 20.9707 176.424 22.3147 177 23.68 177.64C 25.0453 178.28 26.2827 179.069 27.392 180.008C 28.5013 180.947 29.3973 182.056 30.08 183.336C 30.7627 184.573 31.104 186.045 31.104 187.752C 31.104 189.288 30.8267 190.909 30.272 192.616C 29.7173 194.28 28.8 195.837 27.52 197.288C 26.24 198.696 24.5547 199.869 22.464 200.808C 20.3733 201.704 17.792 202.152 14.72 202.152C 11.9467 202.152 9.28 201.597 6.72 200.488C 4.16 199.336 2.19733 197.651 0.832 195.432L 4.928 192.808C 5.78133 194.301 7.06133 195.581 8.768 196.648C 10.4747 197.672 12.5227 198.184 14.912 198.184C 16.448 198.184 17.8987 197.971 19.264 197.544C 20.672 197.075 21.888 196.435 22.912 195.624C 23.9787 194.771 24.8107 193.747 25.408 192.552C 26.0053 191.357 26.304 190.035 26.304 188.584C 26.304 187.304 26.048 186.195 25.536 185.256C 25.024 184.317 24.32 183.507 23.424 182.824C 22.5707 182.141 21.568 181.544 20.416 181.032C 19.3067 180.52 18.112 180.029 16.832 179.56C 15.552 179.091 14.2933 178.536 13.056 177.896C 11.8187 177.256 10.7307 176.488 9.792 175.592C 8.85333 174.696 8.08533 173.651 7.488 172.456C 6.93333 171.219 6.656 169.789 6.656 168.168C 6.656 166.248 7.01867 164.456 7.744 162.792C 8.46933 161.128 9.51467 159.699 10.88 158.504C 12.2453 157.267 13.9307 156.307 15.936 155.624C 17.9413 154.899 20.224 154.536 22.784 154.536C 25.856 154.536 28.4587 155.048 30.592 156.072C 32.768 157.053 34.3467 158.333 35.328 159.912L 31.424 162.728ZM 52.125 201.768C 50.1197 201.768 48.2637 201.448 46.557 200.808C 44.8503 200.168 43.3783 199.293 42.141 198.184C 40.9463 197.032 40.0077 195.667 39.325 194.088C 38.6423 192.467 38.301 190.696 38.301 188.776C 38.301 186.259 38.7277 183.891 39.581 181.672C 40.477 179.411 41.7143 177.448 43.293 175.784C 44.8717 174.077 46.749 172.733 48.925 171.752C 51.101 170.771 53.4903 170.28 56.093 170.28C 58.141 170.28 59.997 170.6 61.661 171.24C 63.3677 171.837 64.8183 172.712 66.013 173.864C 67.2503 175.016 68.2103 176.381 68.893 177.96C 69.5757 179.539 69.917 181.288 69.917 183.208C 69.917 185.768 69.469 188.179 68.573 190.44C 67.7197 192.701 66.5037 194.664 64.925 196.328C 63.3463 197.992 61.469 199.315 59.293 200.296C 57.117 201.277 54.7277 201.768 52.125 201.768ZM 65.437 183.464C 65.437 182.099 65.2237 180.84 64.797 179.688C 64.3703 178.493 63.7303 177.469 62.877 176.616C 62.0663 175.763 61.0637 175.101 59.869 174.632C 58.6743 174.12 57.3303 173.864 55.837 173.864C 53.9597 173.864 52.2317 174.269 50.653 175.08C 49.0743 175.848 47.709 176.915 46.557 178.28C 45.405 179.603 44.4877 181.16 43.805 182.952C 43.165 184.701 42.845 186.557 42.845 188.52C 42.845 189.885 43.0583 191.165 43.485 192.36C 43.9117 193.512 44.5303 194.515 45.341 195.368C 46.1943 196.221 47.197 196.904 48.349 197.416C 49.5437 197.885 50.8877 198.12 52.381 198.12C 54.301 198.12 56.0503 197.736 57.629 196.968C 59.2503 196.157 60.637 195.091 61.789 193.768C 62.941 192.445 63.837 190.909 64.477 189.16C 65.117 187.368 65.437 185.469 65.437 183.464ZM 109.642 174.632L 101.514 174.632L 98.378 192.168C 98.25 192.936 98.186 193.619 98.186 194.216C 98.186 195.624 98.5273 196.563 99.21 197.032C 99.8927 197.501 100.789 197.736 101.898 197.736C 102.495 197.736 103.157 197.651 103.882 197.48C 104.607 197.309 105.162 197.075 105.546 196.776L 105.034 200.488C 104.479 200.787 103.754 201 102.858 201.128C 102.005 201.299 101.087 201.384 100.106 201.384C 99.3807 201.384 98.634 201.299 97.866 201.128C 97.1407 200.957 96.458 200.659 95.818 200.232C 95.2207 199.763 94.7087 199.144 94.282 198.376C 93.898 197.608 93.706 196.627 93.706 195.432C 93.706 194.835 93.77 194.152 93.898 193.384L 97.226 174.632L 91.018 174.632L 91.722 171.048L 97.802 171.048L 99.274 162.6L 103.562 162.6L 102.09 171.048L 110.346 171.048L 109.642 174.632ZM 131.123 170.28C 134.323 170.28 136.819 171.112 138.611 172.776C 140.446 174.397 141.363 176.616 141.363 179.432C 141.363 179.944 141.32 180.456 141.235 180.968C 141.192 181.48 141.128 182.035 141.043 182.632L 137.779 201L 133.491 201L 136.435 184.424C 136.691 183.101 136.819 181.843 136.819 180.648C 136.819 178.557 136.307 176.915 135.283 175.72C 134.302 174.483 132.552 173.864 130.035 173.864C 128.883 173.864 127.731 174.099 126.579 174.568C 125.427 175.037 124.36 175.763 123.379 176.744C 122.398 177.725 121.523 178.963 120.755 180.456C 120.03 181.907 119.496 183.635 119.155 185.64L 116.467 201L 112.179 201L 120.691 152.616L 124.979 152.616L 120.883 175.976L 121.011 175.976C 122.12 174.227 123.571 172.84 125.363 171.816C 127.155 170.792 129.075 170.28 131.123 170.28ZM 171.324 182.632C 171.452 181.907 171.538 181.352 171.58 180.968C 171.623 180.541 171.645 180.157 171.645 179.816C 171.645 177.64 171.026 176.104 169.788 175.208C 168.551 174.312 166.823 173.864 164.604 173.864C 162.812 173.864 161.085 174.227 159.42 174.952C 157.757 175.635 156.37 176.467 155.26 177.448L 153.34 174.568C 154.791 173.288 156.583 172.264 158.717 171.496C 160.85 170.685 162.962 170.28 165.052 170.28C 166.461 170.28 167.805 170.451 169.084 170.792C 170.407 171.091 171.538 171.603 172.476 172.328C 173.458 173.011 174.226 173.907 174.781 175.016C 175.378 176.083 175.677 177.384 175.677 178.92C 175.677 179.304 175.655 179.837 175.612 180.52C 175.57 181.16 175.506 181.693 175.42 182.12L 173.244 194.28C 173.031 195.432 172.861 196.627 172.733 197.864C 172.604 199.101 172.541 200.147 172.541 201L 168.701 201C 168.701 200.275 168.722 199.485 168.764 198.632C 168.85 197.779 168.956 196.947 169.084 196.136L 168.956 196.136C 168.103 197.117 167.25 197.971 166.396 198.696C 165.543 199.379 164.647 199.933 163.708 200.36C 162.812 200.787 161.831 201.085 160.764 201.256C 159.741 201.469 158.61 201.576 157.373 201.576C 156.349 201.576 155.303 201.448 154.236 201.192C 153.17 200.936 152.188 200.509 151.293 199.912C 150.439 199.272 149.714 198.461 149.116 197.48C 148.562 196.499 148.285 195.283 148.285 193.832C 148.285 191.443 148.967 189.523 150.332 188.072C 151.698 186.579 153.469 185.448 155.644 184.68C 157.863 183.869 160.338 183.336 163.069 183.08C 165.799 182.781 168.551 182.632 171.324 182.632ZM 169.725 185.896C 167.805 185.896 165.842 186.003 163.837 186.216C 161.831 186.387 159.997 186.749 158.333 187.304C 156.711 187.816 155.367 188.563 154.3 189.544C 153.277 190.483 152.765 191.741 152.765 193.32C 152.765 194.259 152.935 195.048 153.277 195.688C 153.618 196.285 154.066 196.776 154.621 197.16C 155.218 197.501 155.879 197.757 156.604 197.928C 157.373 198.056 158.141 198.12 158.908 198.12C 160.444 198.12 161.852 197.864 163.132 197.352C 164.413 196.84 165.543 196.136 166.524 195.24C 167.506 194.344 168.316 193.32 168.956 192.168C 169.597 190.973 170.045 189.715 170.301 188.392L 170.749 185.896L 169.725 185.896ZM 199.767 174.632L 191.639 174.632L 188.503 192.168C 188.375 192.936 188.311 193.619 188.311 194.216C 188.311 195.624 188.652 196.563 189.335 197.032C 190.018 197.501 190.914 197.736 192.023 197.736C 192.62 197.736 193.282 197.651 194.007 197.48C 194.732 197.309 195.287 197.075 195.671 196.776L 195.159 200.488C 194.604 200.787 193.879 201 192.983 201.128C 192.13 201.299 191.212 201.384 190.231 201.384C 189.506 201.384 188.759 201.299 187.991 201.128C 187.266 200.957 186.583 200.659 185.943 200.232C 185.346 199.763 184.834 199.144 184.407 198.376C 184.023 197.608 183.831 196.627 183.831 195.432C 183.831 194.835 183.895 194.152 184.023 193.384L 187.351 174.632L 181.143 174.632L 181.847 171.048L 187.927 171.048L 189.399 162.6L 193.687 162.6L 192.215 171.048L 200.471 171.048L 199.767 174.632ZM 228.096 196.264L 228.224 196.264L 242.816 171.048L 247.616 171.048L 224.96 208.744C 223.552 211.048 222.101 212.883 220.608 214.248C 219.115 215.656 217.259 216.36 215.04 216.36C 213.803 216.36 212.587 216.232 211.392 215.976L 212.032 212.008C 212.971 212.349 213.909 212.52 214.848 212.52C 216.213 212.52 217.387 212.051 218.368 211.112C 219.392 210.216 220.395 208.915 221.376 207.208L 225.088 200.936L 218.816 171.048L 223.296 171.048L 228.096 196.264ZM 262.938 201.768C 260.932 201.768 259.076 201.448 257.37 200.808C 255.663 200.168 254.191 199.293 252.953 198.184C 251.759 197.032 250.82 195.667 250.138 194.088C 249.455 192.467 249.114 190.696 249.114 188.776C 249.114 186.259 249.54 183.891 250.394 181.672C 251.29 179.411 252.527 177.448 254.106 175.784C 255.684 174.077 257.561 172.733 259.738 171.752C 261.913 170.771 264.303 170.28 266.906 170.28C 268.954 170.28 270.809 170.6 272.473 171.24C 274.18 171.837 275.631 172.712 276.826 173.864C 278.063 175.016 279.023 176.381 279.706 177.96C 280.388 179.539 280.729 181.288 280.729 183.208C 280.729 185.768 280.282 188.179 279.386 190.44C 278.532 192.701 277.316 194.664 275.737 196.328C 274.159 197.992 272.281 199.315 270.105 200.296C 267.93 201.277 265.54 201.768 262.938 201.768ZM 276.25 183.464C 276.25 182.099 276.036 180.84 275.61 179.688C 275.183 178.493 274.543 177.469 273.69 176.616C 272.879 175.763 271.876 175.101 270.681 174.632C 269.487 174.12 268.143 173.864 266.649 173.864C 264.772 173.864 263.044 174.269 261.465 175.08C 259.887 175.848 258.521 176.915 257.37 178.28C 256.217 179.603 255.3 181.16 254.617 182.952C 253.977 184.701 253.657 186.557 253.657 188.52C 253.657 189.885 253.871 191.165 254.298 192.36C 254.724 193.512 255.343 194.515 256.153 195.368C 257.007 196.221 258.009 196.904 259.161 197.416C 260.356 197.885 261.7 198.12 263.194 198.12C 265.114 198.12 266.863 197.736 268.441 196.968C 270.063 196.157 271.449 195.091 272.601 193.768C 273.753 192.445 274.649 190.909 275.289 189.16C 275.93 187.368 276.25 185.469 276.25 183.464ZM 308.358 201C 308.444 200.189 308.551 199.293 308.678 198.312C 308.806 197.331 308.934 196.52 309.062 195.88L 308.934 195.88C 307.782 197.715 306.289 199.165 304.455 200.232C 302.663 201.256 300.743 201.768 298.694 201.768C 295.452 201.768 292.913 200.957 291.078 199.336C 289.286 197.672 288.391 195.432 288.391 192.616C 288.391 192.104 288.412 191.592 288.454 191.08C 288.54 190.568 288.625 190.013 288.711 189.416L 291.975 171.048L 296.262 171.048L 293.318 187.624C 293.062 188.989 292.935 190.248 292.935 191.4C 292.935 193.491 293.425 195.133 294.406 196.328C 295.388 197.523 297.116 198.12 299.59 198.12C 300.743 198.12 301.895 197.885 303.046 197.416C 304.198 196.947 305.265 196.243 306.247 195.304C 307.271 194.323 308.167 193.107 308.934 191.656C 309.702 190.163 310.257 188.413 310.598 186.408L 313.287 171.048L 317.575 171.048L 313.479 194.408C 313.308 195.219 313.116 196.264 312.903 197.544C 312.732 198.824 312.604 199.976 312.518 201L 308.358 201ZM 330.192 170.728L 326.544 170.728L 333.52 155.688L 338.064 155.688L 330.192 170.728ZM 342.588 177.64C 342.758 176.829 342.929 175.784 343.1 174.504C 343.313 173.224 343.462 172.072 343.548 171.048L 347.644 171.048C 347.558 171.859 347.451 172.755 347.323 173.736C 347.196 174.717 347.068 175.528 346.939 176.168L 347.068 176.168C 348.177 174.419 349.585 173.011 351.292 171.944C 352.998 170.835 354.918 170.28 357.052 170.28C 357.606 170.28 358.097 170.301 358.524 170.344C 358.95 170.387 359.398 170.472 359.868 170.6L 358.844 174.696C 358.63 174.611 358.225 174.525 357.628 174.44C 357.073 174.355 356.497 174.312 355.899 174.312C 354.747 174.312 353.617 174.525 352.507 174.952C 351.398 175.379 350.374 176.061 349.436 177C 348.54 177.896 347.729 179.069 347.003 180.52C 346.321 181.928 345.809 183.635 345.467 185.64L 342.78 201L 338.491 201L 342.588 177.64ZM 364.344 187.176C 364.301 187.432 364.258 187.688 364.215 187.944C 364.215 188.157 364.215 188.371 364.215 188.584C 364.215 189.992 364.45 191.272 364.919 192.424C 365.431 193.576 366.114 194.579 366.967 195.432C 367.863 196.285 368.887 196.947 370.04 197.416C 371.234 197.885 372.514 198.12 373.879 198.12C 376.226 198.12 378.274 197.608 380.024 196.584C 381.773 195.517 383.181 194.28 384.247 192.872L 386.935 195.432C 385.186 197.523 383.16 199.101 380.855 200.168C 378.552 201.235 376.098 201.768 373.495 201.768C 371.575 201.768 369.783 201.469 368.12 200.872C 366.455 200.275 365.005 199.421 363.767 198.312C 362.573 197.203 361.613 195.837 360.888 194.216C 360.205 192.552 359.864 190.675 359.864 188.584C 359.864 186.152 360.312 183.827 361.207 181.608C 362.103 179.389 363.319 177.448 364.856 175.784C 366.434 174.12 368.269 172.797 370.359 171.816C 372.493 170.792 374.775 170.28 377.208 170.28C 381.303 170.28 384.397 171.368 386.487 173.544C 388.621 175.72 389.688 178.536 389.688 181.992C 389.688 182.504 389.645 183.293 389.559 184.36C 389.474 185.384 389.325 186.323 389.111 187.176L 364.344 187.176ZM 385.271 183.976C 385.314 183.635 385.336 183.272 385.336 182.888C 385.378 182.461 385.399 182.077 385.399 181.736C 385.399 179.432 384.695 177.555 383.288 176.104C 381.879 174.611 379.81 173.864 377.08 173.864C 375.501 173.864 374.029 174.141 372.663 174.696C 371.341 175.208 370.146 175.933 369.08 176.872C 368.056 177.811 367.181 178.899 366.455 180.136C 365.73 181.331 365.218 182.611 364.919 183.976L 385.271 183.976ZM 421.266 175.912C 421.735 175.144 422.354 174.419 423.122 173.736C 423.889 173.053 424.743 172.456 425.682 171.944C 426.663 171.432 427.708 171.027 428.817 170.728C 429.927 170.429 431.079 170.28 432.274 170.28C 434.322 170.28 436.156 170.6 437.778 171.24C 439.441 171.837 440.871 172.712 442.065 173.864C 443.26 175.016 444.178 176.381 444.818 177.96C 445.458 179.539 445.778 181.288 445.778 183.208C 445.778 185.768 445.329 188.179 444.433 190.44C 443.537 192.701 442.3 194.664 440.722 196.328C 439.185 197.992 437.33 199.315 435.153 200.296C 433.02 201.277 430.695 201.768 428.177 201.768C 426.001 201.768 423.953 201.277 422.033 200.296C 420.156 199.315 418.727 197.864 417.746 195.944L 417.617 195.944L 413.97 216.36L 409.681 216.36L 417.746 171.048L 422.033 171.048L 421.137 175.912L 421.266 175.912ZM 441.298 183.464C 441.298 182.141 441.084 180.904 440.657 179.752C 440.274 178.557 439.676 177.533 438.865 176.68C 438.055 175.784 437.073 175.101 435.921 174.632C 434.77 174.12 433.426 173.864 431.889 173.864C 430.012 173.864 428.263 174.248 426.642 175.016C 425.02 175.784 423.612 176.851 422.417 178.216C 421.223 179.539 420.284 181.096 419.601 182.888C 418.919 184.637 418.578 186.493 418.578 188.456C 418.578 189.864 418.791 191.165 419.217 192.36C 419.687 193.512 420.348 194.536 421.201 195.432C 422.055 196.285 423.057 196.947 424.21 197.416C 425.404 197.885 426.748 198.12 428.242 198.12C 430.204 198.12 431.975 197.736 433.553 196.968C 435.175 196.2 436.562 195.155 437.713 193.832C 438.865 192.509 439.74 190.973 440.337 189.224C 440.978 187.432 441.298 185.512 441.298 183.464ZM 456.525 177.64C 456.696 176.829 456.866 175.784 457.037 174.504C 457.25 173.224 457.4 172.072 457.485 171.048L 461.581 171.048C 461.496 171.859 461.389 172.755 461.261 173.736C 461.133 174.717 461.005 175.528 460.877 176.168L 461.005 176.168C 462.114 174.419 463.522 173.011 465.229 171.944C 466.936 170.835 468.856 170.28 470.989 170.28C 471.544 170.28 472.034 170.301 472.461 170.344C 472.888 170.387 473.336 170.472 473.805 170.6L 472.781 174.696C 472.568 174.611 472.162 174.525 471.565 174.44C 471.01 174.355 470.434 174.312 469.837 174.312C 468.685 174.312 467.554 174.525 466.445 174.952C 465.336 175.379 464.312 176.061 463.373 177C 462.477 177.896 461.666 179.069 460.941 180.52C 460.258 181.928 459.746 183.635 459.405 185.64L 456.717 201L 452.429 201L 456.525 177.64ZM 478.281 187.176C 478.238 187.432 478.196 187.688 478.153 187.944C 478.153 188.157 478.153 188.371 478.153 188.584C 478.153 189.992 478.388 191.272 478.857 192.424C 479.369 193.576 480.052 194.579 480.905 195.432C 481.801 196.285 482.825 196.947 483.977 197.416C 485.172 197.885 486.452 198.12 487.817 198.12C 490.164 198.12 492.212 197.608 493.961 196.584C 495.71 195.517 497.118 194.28 498.185 192.872L 500.873 195.432C 499.124 197.523 497.097 199.101 494.793 200.168C 492.489 201.235 490.036 201.768 487.433 201.768C 485.513 201.768 483.721 201.469 482.057 200.872C 480.393 200.275 478.942 199.421 477.705 198.312C 476.51 197.203 475.55 195.837 474.825 194.216C 474.142 192.552 473.801 190.675 473.801 188.584C 473.801 186.152 474.249 183.827 475.145 181.608C 476.041 179.389 477.257 177.448 478.793 175.784C 480.372 174.12 482.206 172.797 484.297 171.816C 486.43 170.792 488.713 170.28 491.145 170.28C 495.241 170.28 498.334 171.368 500.425 173.544C 502.558 175.72 503.625 178.536 503.625 181.992C 503.625 182.504 503.582 183.293 503.497 184.36C 503.412 185.384 503.262 186.323 503.049 187.176L 478.281 187.176ZM 499.209 183.976C 499.252 183.635 499.273 183.272 499.273 182.888C 499.316 182.461 499.337 182.077 499.337 181.736C 499.337 179.432 498.633 177.555 497.225 176.104C 495.817 174.611 493.748 173.864 491.017 173.864C 489.438 173.864 487.966 174.141 486.601 174.696C 485.278 175.208 484.084 175.933 483.017 176.872C 481.993 177.811 481.118 178.899 480.393 180.136C 479.668 181.331 479.156 182.611 478.857 183.976L 499.209 183.976ZM 519.203 175.912C 519.672 175.144 520.291 174.419 521.059 173.736C 521.827 173.053 522.68 172.456 523.619 171.944C 524.6 171.432 525.646 171.027 526.755 170.728C 527.864 170.429 529.016 170.28 530.211 170.28C 532.259 170.28 534.094 170.6 535.715 171.24C 537.379 171.837 538.808 172.712 540.003 173.864C 541.198 175.016 542.115 176.381 542.755 177.96C 543.395 179.539 543.715 181.288 543.715 183.208C 543.715 185.768 543.267 188.179 542.371 190.44C 541.475 192.701 540.238 194.664 538.659 196.328C 537.123 197.992 535.267 199.315 533.091 200.296C 530.958 201.277 528.632 201.768 526.115 201.768C 523.939 201.768 521.891 201.277 519.971 200.296C 518.094 199.315 516.664 197.864 515.683 195.944L 515.555 195.944L 511.907 216.36L 507.619 216.36L 515.683 171.048L 519.971 171.048L 519.075 175.912L 519.203 175.912ZM 539.235 183.464C 539.235 182.141 539.022 180.904 538.595 179.752C 538.211 178.557 537.614 177.533 536.803 176.68C 535.992 175.784 535.011 175.101 533.859 174.632C 532.707 174.12 531.363 173.864 529.827 173.864C 527.95 173.864 526.2 174.248 524.579 175.016C 522.958 175.784 521.55 176.851 520.355 178.216C 519.16 179.539 518.222 181.096 517.539 182.888C 516.856 184.637 516.515 186.493 516.515 188.456C 516.515 189.864 516.728 191.165 517.155 192.36C 517.624 193.512 518.286 194.536 519.139 195.432C 519.992 196.285 520.995 196.947 522.147 197.416C 523.342 197.885 524.686 198.12 526.179 198.12C 528.142 198.12 529.912 197.736 531.491 196.968C 533.112 196.2 534.499 195.155 535.651 193.832C 536.803 192.509 537.678 190.973 538.275 189.224C 538.915 187.432 539.235 185.512 539.235 183.464ZM 572.574 182.632C 572.702 181.907 572.788 181.352 572.83 180.968C 572.873 180.541 572.895 180.157 572.895 179.816C 572.895 177.64 572.276 176.104 571.038 175.208C 569.801 174.312 568.073 173.864 565.854 173.864C 564.062 173.864 562.335 174.227 560.67 174.952C 559.007 175.635 557.62 176.467 556.51 177.448L 554.59 174.568C 556.041 173.288 557.833 172.264 559.967 171.496C 562.1 170.685 564.212 170.28 566.302 170.28C 567.711 170.28 569.055 170.451 570.334 170.792C 571.657 171.091 572.788 171.603 573.726 172.328C 574.708 173.011 575.476 173.907 576.031 175.016C 576.628 176.083 576.927 177.384 576.927 178.92C 576.927 179.304 576.905 179.837 576.862 180.52C 576.82 181.16 576.756 181.693 576.67 182.12L 574.494 194.28C 574.281 195.432 574.111 196.627 573.983 197.864C 573.854 199.101 573.791 200.147 573.791 201L 569.951 201C 569.951 200.275 569.972 199.485 570.014 198.632C 570.1 197.779 570.206 196.947 570.334 196.136L 570.206 196.136C 569.353 197.117 568.5 197.971 567.646 198.696C 566.793 199.379 565.897 199.933 564.958 200.36C 564.062 200.787 563.081 201.085 562.014 201.256C 560.991 201.469 559.86 201.576 558.623 201.576C 557.599 201.576 556.553 201.448 555.486 201.192C 554.42 200.936 553.438 200.509 552.543 199.912C 551.689 199.272 550.964 198.461 550.366 197.48C 549.812 196.499 549.535 195.283 549.535 193.832C 549.535 191.443 550.217 189.523 551.582 188.072C 552.948 186.579 554.719 185.448 556.894 184.68C 559.113 183.869 561.588 183.336 564.319 183.08C 567.049 182.781 569.801 182.632 572.574 182.632ZM 570.975 185.896C 569.055 185.896 567.092 186.003 565.087 186.216C 563.081 186.387 561.247 186.749 559.583 187.304C 557.961 187.816 556.617 188.563 555.55 189.544C 554.527 190.483 554.015 191.741 554.015 193.32C 554.015 194.259 554.185 195.048 554.527 195.688C 554.868 196.285 555.316 196.776 555.871 197.16C 556.468 197.501 557.129 197.757 557.854 197.928C 558.623 198.056 559.391 198.12 560.158 198.12C 561.694 198.12 563.102 197.864 564.382 197.352C 565.663 196.84 566.793 196.136 567.774 195.24C 568.756 194.344 569.566 193.32 570.206 192.168C 570.847 190.973 571.295 189.715 571.551 188.392L 571.999 185.896L 570.975 185.896ZM 588.65 177.64C 588.821 176.829 588.991 175.784 589.162 174.504C 589.375 173.224 589.525 172.072 589.61 171.048L 593.706 171.048C 593.621 171.859 593.514 172.755 593.386 173.736C 593.258 174.717 593.13 175.528 593.002 176.168L 593.13 176.168C 594.239 174.419 595.647 173.011 597.354 171.944C 599.061 170.835 600.981 170.28 603.114 170.28C 603.669 170.28 604.159 170.301 604.586 170.344C 605.013 170.387 605.461 170.472 605.93 170.6L 604.906 174.696C 604.693 174.611 604.287 174.525 603.69 174.44C 603.135 174.355 602.559 174.312 601.962 174.312C 600.81 174.312 599.679 174.525 598.57 174.952C 597.461 175.379 596.437 176.061 595.498 177C 594.602 177.896 593.791 179.069 593.066 180.52C 592.383 181.928 591.871 183.635 591.53 185.64L 588.842 201L 584.554 201L 588.65 177.64ZM 610.406 187.176C 610.363 187.432 610.321 187.688 610.278 187.944C 610.278 188.157 610.278 188.371 610.278 188.584C 610.278 189.992 610.513 191.272 610.982 192.424C 611.494 193.576 612.177 194.579 613.03 195.432C 613.926 196.285 614.95 196.947 616.102 197.416C 617.297 197.885 618.577 198.12 619.942 198.12C 622.289 198.12 624.337 197.608 626.086 196.584C 627.835 195.517 629.243 194.28 630.31 192.872L 632.998 195.432C 631.249 197.523 629.222 199.101 626.918 200.168C 624.614 201.235 622.161 201.768 619.558 201.768C 617.638 201.768 615.846 201.469 614.182 200.872C 612.518 200.275 611.067 199.421 609.83 198.312C 608.635 197.203 607.675 195.837 606.95 194.216C 606.267 192.552 605.926 190.675 605.926 188.584C 605.926 186.152 606.374 183.827 607.27 181.608C 608.166 179.389 609.382 177.448 610.918 175.784C 612.497 174.12 614.331 172.797 616.422 171.816C 618.555 170.792 620.838 170.28 623.27 170.28C 627.366 170.28 630.459 171.368 632.55 173.544C 634.683 175.72 635.75 178.536 635.75 181.992C 635.75 182.504 635.707 183.293 635.622 184.36C 635.537 185.384 635.387 186.323 635.174 187.176L 610.406 187.176ZM 631.334 183.976C 631.377 183.635 631.398 183.272 631.398 182.888C 631.441 182.461 631.462 182.077 631.462 181.736C 631.462 179.432 630.758 177.555 629.35 176.104C 627.942 174.611 625.873 173.864 623.142 173.864C 621.563 173.864 620.091 174.141 618.726 174.696C 617.403 175.208 616.209 175.933 615.142 176.872C 614.118 177.811 613.243 178.899 612.518 180.136C 611.793 181.331 611.281 182.611 610.982 183.976L 631.334 183.976ZM 642.176 188.84C 642.176 186.28 642.603 183.869 643.456 181.608C 644.352 179.347 645.589 177.384 647.168 175.72C 648.747 174.056 650.603 172.733 652.736 171.752C 654.912 170.771 657.259 170.28 659.776 170.28C 661.952 170.28 663.979 170.771 665.856 171.752C 667.776 172.733 669.227 174.184 670.208 176.104L 670.336 176.104L 674.496 152.616L 678.784 152.616L 670.208 201L 665.92 201L 666.816 196.072L 666.688 196.072C 665.707 197.608 664.235 198.952 662.272 200.104C 660.309 201.213 658.112 201.768 655.68 201.768C 653.632 201.768 651.776 201.469 650.112 200.872C 648.491 200.232 647.083 199.336 645.888 198.184C 644.693 197.032 643.776 195.667 643.136 194.088C 642.496 192.509 642.176 190.76 642.176 188.84ZM 646.656 188.52C 646.656 189.885 646.848 191.144 647.232 192.296C 647.659 193.448 648.277 194.472 649.088 195.368C 649.899 196.221 650.88 196.904 652.032 197.416C 653.184 197.885 654.528 198.12 656.064 198.12C 657.941 198.12 659.691 197.736 661.312 196.968C 662.933 196.2 664.341 195.155 665.536 193.832C 666.731 192.467 667.669 190.909 668.352 189.16C 669.035 187.411 669.376 185.533 669.376 183.528C 669.376 182.12 669.141 180.84 668.672 179.688C 668.245 178.493 667.605 177.469 666.752 176.616C 665.899 175.72 664.875 175.037 663.68 174.568C 662.485 174.099 661.163 173.864 659.712 173.864C 657.749 173.864 655.957 174.248 654.336 175.016C 652.757 175.784 651.392 176.829 650.24 178.152C 649.088 179.475 648.192 181.032 647.552 182.824C 646.955 184.573 646.656 186.472 646.656 188.52ZM 703.621 171.048L 705.668 195.368L 705.797 195.368L 718.469 171.048L 722.565 171.048L 726.084 195.368L 726.277 195.368L 738.244 171.048L 742.853 171.048L 727.556 201L 722.948 201L 719.556 176.744L 719.428 176.744L 706.948 201L 702.405 201L 699.141 171.048L 703.621 171.048ZM 763.998 170.28C 767.198 170.28 769.694 171.112 771.486 172.776C 773.321 174.397 774.238 176.616 774.238 179.432C 774.238 179.944 774.195 180.456 774.11 180.968C 774.067 181.48 774.003 182.035 773.918 182.632L 770.654 201L 766.366 201L 769.31 184.424C 769.566 183.101 769.694 181.843 769.694 180.648C 769.694 178.557 769.182 176.915 768.158 175.72C 767.177 174.483 765.427 173.864 762.91 173.864C 761.758 173.864 760.606 174.099 759.454 174.568C 758.302 175.037 757.235 175.763 756.254 176.744C 755.273 177.725 754.398 178.963 753.63 180.456C 752.905 181.907 752.371 183.635 752.03 185.64L 749.342 201L 745.054 201L 753.566 152.616L 757.854 152.616L 753.758 175.976L 753.886 175.976C 754.995 174.227 756.446 172.84 758.238 171.816C 760.03 170.792 761.95 170.28 763.998 170.28ZM 786.344 187.176C 786.301 187.432 786.258 187.688 786.215 187.944C 786.215 188.157 786.215 188.371 786.215 188.584C 786.215 189.992 786.45 191.272 786.919 192.424C 787.431 193.576 788.114 194.579 788.967 195.432C 789.863 196.285 790.887 196.947 792.04 197.416C 793.234 197.885 794.514 198.12 795.879 198.12C 798.226 198.12 800.274 197.608 802.024 196.584C 803.773 195.517 805.181 194.28 806.247 192.872L 808.935 195.432C 807.186 197.523 805.16 199.101 802.855 200.168C 800.552 201.235 798.098 201.768 795.495 201.768C 793.575 201.768 791.783 201.469 790.12 200.872C 788.455 200.275 787.005 199.421 785.767 198.312C 784.573 197.203 783.613 195.837 782.888 194.216C 782.205 192.552 781.864 190.675 781.864 188.584C 781.864 186.152 782.312 183.827 783.207 181.608C 784.103 179.389 785.319 177.448 786.856 175.784C 788.434 174.12 790.269 172.797 792.359 171.816C 794.493 170.792 796.775 170.28 799.208 170.28C 803.303 170.28 806.397 171.368 808.487 173.544C 810.621 175.72 811.688 178.536 811.688 181.992C 811.688 182.504 811.645 183.293 811.559 184.36C 811.474 185.384 811.325 186.323 811.111 187.176L 786.344 187.176ZM 807.271 183.976C 807.314 183.635 807.336 183.272 807.336 182.888C 807.378 182.461 807.399 182.077 807.399 181.736C 807.399 179.432 806.695 177.555 805.288 176.104C 803.879 174.611 801.81 173.864 799.08 173.864C 797.501 173.864 796.029 174.141 794.663 174.696C 793.341 175.208 792.146 175.933 791.08 176.872C 790.056 177.811 789.181 178.899 788.455 180.136C 787.73 181.331 787.218 182.611 786.919 183.976L 807.271 183.976ZM 827.458 171.048C 827.372 171.859 827.266 172.755 827.137 173.736C 827.009 174.717 826.882 175.528 826.753 176.168L 826.882 176.168C 828.033 174.333 829.505 172.904 831.297 171.88C 833.132 170.813 835.073 170.28 837.122 170.28C 840.364 170.28 842.882 171.112 844.674 172.776C 846.508 174.397 847.426 176.616 847.426 179.432C 847.426 179.944 847.383 180.456 847.298 180.968C 847.255 181.48 847.191 182.035 847.105 182.632L 843.841 201L 839.553 201L 842.497 184.424C 842.753 183.101 842.882 181.843 842.882 180.648C 842.882 178.557 842.391 176.915 841.41 175.72C 840.428 174.483 838.7 173.864 836.226 173.864C 835.073 173.864 833.921 174.099 832.77 174.568C 831.618 175.037 830.53 175.763 829.505 176.744C 828.524 177.725 827.649 178.963 826.882 180.456C 826.113 181.907 825.559 183.635 825.217 185.64L 822.53 201L 818.241 201L 822.338 177.64C 822.508 176.829 822.679 175.784 822.85 174.504C 823.063 173.224 823.212 172.072 823.298 171.048L 827.458 171.048ZM 875.531 201L 871.243 201L 876.555 171.048L 880.843 171.048L 875.531 201ZM 883.403 159.464C 883.403 160.317 883.104 161.043 882.507 161.64C 881.952 162.237 881.248 162.536 880.395 162.536C 879.584 162.536 878.88 162.28 878.283 161.768C 877.728 161.256 877.451 160.552 877.451 159.656C 877.451 158.76 877.75 158.013 878.347 157.416C 878.987 156.819 879.712 156.52 880.523 156.52C 881.334 156.52 882.016 156.797 882.571 157.352C 883.126 157.864 883.403 158.568 883.403 159.464ZM 904.267 174.632L 896.139 174.632L 893.003 192.168C 892.875 192.936 892.811 193.619 892.811 194.216C 892.811 195.624 893.152 196.563 893.835 197.032C 894.518 197.501 895.414 197.736 896.523 197.736C 897.12 197.736 897.782 197.651 898.507 197.48C 899.232 197.309 899.787 197.075 900.171 196.776L 899.659 200.488C 899.104 200.787 898.379 201 897.483 201.128C 896.63 201.299 895.712 201.384 894.731 201.384C 894.006 201.384 893.259 201.299 892.491 201.128C 891.766 200.957 891.083 200.659 890.443 200.232C 889.846 199.763 889.334 199.144 888.907 198.376C 888.523 197.608 888.331 196.627 888.331 195.432C 888.331 194.835 888.395 194.152 888.523 193.384L 891.851 174.632L 885.643 174.632L 886.347 171.048L 892.427 171.048L 893.899 162.6L 898.187 162.6L 896.715 171.048L 904.971 171.048L 904.267 174.632ZM 947.764 177.832C 947.252 176.68 946.356 175.741 945.076 175.016C 943.839 174.248 942.409 173.864 940.788 173.864C 938.868 173.864 937.097 174.248 935.476 175.016C 933.855 175.784 932.447 176.851 931.252 178.216C 930.1 179.539 929.183 181.096 928.5 182.888C 927.86 184.637 927.54 186.515 927.54 188.52C 927.54 189.885 927.753 191.165 928.18 192.36C 928.607 193.512 929.225 194.515 930.036 195.368C 930.889 196.221 931.913 196.904 933.108 197.416C 934.303 197.885 935.668 198.12 937.204 198.12C 939.124 198.12 940.809 197.757 942.26 197.032C 943.711 196.307 944.969 195.368 946.036 194.216L 948.788 196.584C 947.252 198.163 945.524 199.421 943.604 200.36C 941.684 201.299 939.444 201.768 936.884 201.768C 934.751 201.768 932.831 201.469 931.124 200.872C 929.417 200.232 927.945 199.357 926.708 198.248C 925.513 197.096 924.596 195.731 923.956 194.152C 923.316 192.573 922.996 190.824 922.996 188.904C 922.996 186.344 923.423 183.933 924.276 181.672C 925.129 179.411 926.324 177.448 927.86 175.784C 929.439 174.077 931.337 172.733 933.556 171.752C 935.775 170.771 938.228 170.28 940.916 170.28C 943.135 170.28 945.204 170.685 947.124 171.496C 949.087 172.307 950.559 173.587 951.54 175.336L 947.764 177.832ZM 968.5 201.768C 966.495 201.768 964.639 201.448 962.932 200.808C 961.225 200.168 959.753 199.293 958.516 198.184C 957.321 197.032 956.383 195.667 955.7 194.088C 955.017 192.467 954.676 190.696 954.676 188.776C 954.676 186.259 955.103 183.891 955.956 181.672C 956.852 179.411 958.089 177.448 959.668 175.784C 961.247 174.077 963.124 172.733 965.3 171.752C 967.476 170.771 969.865 170.28 972.468 170.28C 974.516 170.28 976.372 170.6 978.036 171.24C 979.743 171.837 981.193 172.712 982.388 173.864C 983.625 175.016 984.585 176.381 985.268 177.96C 985.951 179.539 986.292 181.288 986.292 183.208C 986.292 185.768 985.844 188.179 984.948 190.44C 984.095 192.701 982.879 194.664 981.3 196.328C 979.721 197.992 977.844 199.315 975.668 200.296C 973.492 201.277 971.103 201.768 968.5 201.768ZM 981.812 183.464C 981.812 182.099 981.599 180.84 981.172 179.688C 980.745 178.493 980.105 177.469 979.252 176.616C 978.441 175.763 977.439 175.101 976.244 174.632C 975.049 174.12 973.705 173.864 972.212 173.864C 970.335 173.864 968.607 174.269 967.028 175.08C 965.449 175.848 964.084 176.915 962.932 178.28C 961.78 179.603 960.863 181.16 960.18 182.952C 959.54 184.701 959.22 186.557 959.22 188.52C 959.22 189.885 959.433 191.165 959.86 192.36C 960.287 193.512 960.905 194.515 961.716 195.368C 962.569 196.221 963.572 196.904 964.724 197.416C 965.919 197.885 967.263 198.12 968.756 198.12C 970.676 198.12 972.425 197.736 974.004 196.968C 975.625 196.157 977.012 195.091 978.164 193.768C 979.316 192.445 980.212 190.909 980.852 189.16C 981.492 187.368 981.812 185.469 981.812 183.464ZM 1013.92 201C 1014.01 200.189 1014.11 199.293 1014.24 198.312C 1014.37 197.331 1014.5 196.52 1014.62 195.88L 1014.5 195.88C 1013.34 197.715 1011.85 199.165 1010.02 200.232C 1008.23 201.256 1006.31 201.768 1004.26 201.768C 1001.01 201.768 998.476 200.957 996.641 199.336C 994.849 197.672 993.953 195.432 993.953 192.616C 993.953 192.104 993.974 191.592 994.017 191.08C 994.102 190.568 994.188 190.013 994.273 189.416L 997.537 171.048L 1001.82 171.048L 998.881 187.624C 998.625 188.989 998.497 190.248 998.497 191.4C 998.497 193.491 998.988 195.133 999.969 196.328C 1000.95 197.523 1002.68 198.12 1005.15 198.12C 1006.31 198.12 1007.46 197.885 1008.61 197.416C 1009.76 196.947 1010.83 196.243 1011.81 195.304C 1012.83 194.323 1013.73 193.107 1014.5 191.656C 1015.26 190.163 1015.82 188.413 1016.16 186.408L 1018.85 171.048L 1023.14 171.048L 1019.04 194.408C 1018.87 195.219 1018.68 196.264 1018.47 197.544C 1018.29 198.824 1018.17 199.976 1018.08 201L 1013.92 201ZM 1039.08 171.048C 1039 171.859 1038.89 172.755 1038.76 173.736C 1038.63 174.717 1038.51 175.528 1038.38 176.168L 1038.51 176.168C 1039.66 174.333 1041.13 172.904 1042.92 171.88C 1044.76 170.813 1046.7 170.28 1048.75 170.28C 1051.99 170.28 1054.51 171.112 1056.3 172.776C 1058.13 174.397 1059.05 176.616 1059.05 179.432C 1059.05 179.944 1059.01 180.456 1058.92 180.968C 1058.88 181.48 1058.82 182.035 1058.73 182.632L 1055.47 201L 1051.18 201L 1054.12 184.424C 1054.38 183.101 1054.51 181.843 1054.51 180.648C 1054.51 178.557 1054.02 176.915 1053.03 175.72C 1052.05 174.483 1050.33 173.864 1047.85 173.864C 1046.7 173.864 1045.55 174.099 1044.39 174.568C 1043.24 175.037 1042.15 175.763 1041.13 176.744C 1040.15 177.725 1039.27 178.963 1038.51 180.456C 1037.74 181.907 1037.18 183.635 1036.84 185.64L 1034.15 201L 1029.87 201L 1033.96 177.64C 1034.13 176.829 1034.3 175.784 1034.47 174.504C 1034.69 173.224 1034.84 172.072 1034.92 171.048L 1039.08 171.048ZM 1083.89 174.632L 1075.76 174.632L 1072.63 192.168C 1072.5 192.936 1072.44 193.619 1072.44 194.216C 1072.44 195.624 1072.78 196.563 1073.46 197.032C 1074.14 197.501 1075.04 197.736 1076.15 197.736C 1076.75 197.736 1077.41 197.651 1078.13 197.48C 1078.86 197.309 1079.41 197.075 1079.8 196.776L 1079.28 200.488C 1078.73 200.787 1078 201 1077.11 201.128C 1076.25 201.299 1075.34 201.384 1074.36 201.384C 1073.63 201.384 1072.88 201.299 1072.12 201.128C 1071.39 200.957 1070.71 200.659 1070.07 200.232C 1069.47 199.763 1068.96 199.144 1068.53 198.376C 1068.15 197.608 1067.96 196.627 1067.96 195.432C 1067.96 194.835 1068.02 194.152 1068.15 193.384L 1071.48 174.632L 1065.27 174.632L 1065.97 171.048L 1072.05 171.048L 1073.52 162.6L 1077.81 162.6L 1076.34 171.048L 1084.6 171.048L 1083.89 174.632ZM 1106.78 177.64C 1106.18 176.531 1105.29 175.635 1104.09 174.952C 1102.9 174.227 1101.47 173.864 1099.81 173.864C 1099.04 173.864 1098.23 173.949 1097.37 174.12C 1096.56 174.291 1095.79 174.568 1095.07 174.952C 1094.39 175.336 1093.81 175.848 1093.34 176.488C 1092.91 177.085 1092.7 177.832 1092.7 178.728C 1092.7 179.539 1092.83 180.2 1093.09 180.712C 1093.38 181.224 1093.79 181.672 1094.3 182.056C 1094.81 182.397 1095.43 182.717 1096.16 183.016C 1096.88 183.272 1097.71 183.528 1098.65 183.784C 1101.6 184.637 1103.84 185.725 1105.37 187.048C 1106.91 188.328 1107.68 190.163 1107.68 192.552C 1107.68 194.173 1107.31 195.581 1106.59 196.776C 1105.86 197.928 1104.95 198.888 1103.84 199.656C 1102.73 200.381 1101.49 200.915 1100.12 201.256C 1098.76 201.597 1097.42 201.768 1096.09 201.768C 1093.58 201.768 1091.21 201.299 1088.99 200.36C 1086.81 199.421 1085.11 197.992 1083.87 196.072L 1087.58 193.64C 1088.31 194.877 1089.39 195.944 1090.84 196.84C 1092.3 197.693 1093.98 198.12 1095.9 198.12C 1096.84 198.12 1097.76 198.035 1098.65 197.864C 1099.55 197.651 1100.34 197.352 1101.02 196.968C 1101.75 196.541 1102.32 196.008 1102.75 195.368C 1103.18 194.685 1103.39 193.896 1103.39 193C 1103.39 191.421 1102.75 190.227 1101.47 189.416C 1100.23 188.563 1098.44 187.752 1096.09 186.984C 1095.2 186.685 1094.3 186.344 1093.4 185.96C 1092.51 185.576 1091.7 185.085 1090.97 184.488C 1090.25 183.848 1089.65 183.101 1089.18 182.248C 1088.75 181.352 1088.54 180.285 1088.54 179.048C 1088.54 177.512 1088.88 176.189 1089.57 175.08C 1090.29 173.971 1091.19 173.075 1092.25 172.392C 1093.36 171.667 1094.6 171.133 1095.97 170.792C 1097.33 170.451 1098.7 170.28 1100.06 170.28C 1102.36 170.28 1104.41 170.728 1106.2 171.624C 1108.04 172.52 1109.36 173.715 1110.17 175.208L 1106.78 177.64Z"/>
</defs>
</svg>
