<svg width="68" height="96" viewBox="0 0 68 96" version="1.1" xmlns="http://www.w3.org/2000/svg" xmlns:xlink="http://www.w3.org/1999/xlink">
<title>Vector</title>
<desc>Created using Figma</desc>
<g id="Canvas" transform="translate(-3560 -1179)">
<g id="Vector">
<use xlink:href="#path0_stroke" transform="translate(3565 1184)" fill="#FFFFFF" fill-opacity="0.7"/>
</g>
</g>
<defs>
<path id="path0_stroke" d="M 2.97779 -4.01656C 0.759509 -5.66115 -2.37197 -5.19608 -4.01656 -2.97779C -5.66115 -0.759509 -5.19608 2.37197 -2.97779 4.01656L 2.97779 -4.01656ZM 58 43L 60.9778 47.0166C 62.2499 46.0735 63 44.5835 63 43C 63 41.4165 62.2499 39.9265 60.9778 38.9834L 58 43ZM -2.97779 81.9834C -5.19608 83.628 -5.66115 86.7595 -4.01656 88.9778C -2.37197 91.1961 0.759509 91.6611 2.97779 90.0166L -2.97779 81.9834ZM -2.97779 4.01656L 55.0222 47.0166L 60.9778 38.9834L 2.97779 -4.01656L -2.97779 4.01656ZM 55.0222 38.9834L -2.97779 81.9834L 2.97779 90.0166L 60.9778 47.0166L 55.0222 38.9834Z"/>
</defs>
</svg>
