<svg width="115" height="161" viewBox="0 0 115 161" version="1.1" xmlns="http://www.w3.org/2000/svg" xmlns:xlink="http://www.w3.org/1999/xlink">
<title>Vector</title>
<desc>Created using Figma</desc>
<g id="Canvas" transform="translate(-1249 -1208)">
<g id="Vector">
<use xlink:href="#path0_stroke" transform="translate(1257 1216)" fill="#6DD3CE"/>
</g>
</g>
<defs>
<path id="path0_stroke" d="M 4.43125 -6.05095C 1.0894 -8.49826 -3.60364 -7.7731 -6.05095 -4.43125C -8.49826 -1.0894 -7.7731 3.60364 -4.43125 6.05095L 4.43125 -6.05095ZM 99 72.5L 103.431 78.5509C 105.36 77.1384 106.5 74.8908 106.5 72.5C 106.5 70.1092 105.36 67.8616 103.431 66.449L 99 72.5ZM -4.43125 138.949C -7.7731 141.396 -8.49826 146.089 -6.05095 149.431C -3.60364 152.773 1.0894 153.498 4.43125 151.051L -4.43125 138.949ZM -4.43125 6.05095L 94.5688 78.5509L 103.431 66.449L 4.43125 -6.05095L -4.43125 6.05095ZM 94.5688 66.449L -4.43125 138.949L 4.43125 151.051L 103.431 78.5509L 94.5688 66.449Z"/>
</defs>
</svg>
