<svg width="133" height="467" viewBox="0 0 133 467" version="1.1" xmlns="http://www.w3.org/2000/svg" xmlns:xlink="http://www.w3.org/1999/xlink">
<title>Vector</title>
<desc>Created using Figma</desc>
<g id="Canvas" transform="translate(181 -477)">
<g id="Vector">
<use xlink:href="#path0_stroke" transform="translate(-168 490)" fill="#6DD3CE"/>
</g>
</g>
<defs>
<path id="path0_stroke" d="M 107.4 396.1L 119.9 396.1L 107.4 396.1ZM 62.1 428.9L 45.3 428.9L 45.3 453.9L 62.1 453.9L 62.1 428.9ZM 45.3 428.9C 27.3036 428.9 12.5 414.096 12.5 396.1L -12.5 396.1C -12.5 427.904 13.4964 453.9 45.3 453.9L 45.3 428.9ZM 12.5 396.1L 12.5 45.3L -12.5 45.3L -12.5 396.1L 12.5 396.1ZM 12.5 45.3C 12.5 27.3036 27.3036 12.5 45.3 12.5L 45.3 -12.5C 13.4964 -12.5 -12.5 13.4964 -12.5 45.3L 12.5 45.3ZM 45.3 12.5L 62.1 12.5L 62.1 -12.5L 45.3 -12.5L 45.3 12.5ZM 62.1 12.5C 80.0964 12.5 94.9 27.3036 94.9 45.3L 119.9 45.3C 119.9 13.4964 93.9036 -12.5 62.1 -12.5L 62.1 12.5ZM 94.9 45.3L 94.9 396.1L 119.9 396.1L 119.9 45.3L 94.9 45.3ZM 94.9 396.1C 94.9 414.114 80.1785 428.9 62.1 428.9L 62.1 453.9C 94.0215 453.9 119.9 427.886 119.9 396.1L 94.9 396.1Z"/>
</defs>
</svg>
