<svg width="467" height="133" viewBox="0 0 467 133" version="1.1" xmlns="http://www.w3.org/2000/svg" xmlns:xlink="http://www.w3.org/1999/xlink">
<title>Vector</title>
<desc>Created using Figma</desc>
<g id="Canvas" transform="translate(348 -644)">
<g id="Vector">
<use xlink:href="#path0_stroke" transform="translate(-335 657)" fill="#6DD3CE"/>
</g>
</g>
<defs>
<path id="path0_stroke" d="M 428.9 45.3L 428.9 62.1L 453.9 62.1L 453.9 45.3L 428.9 45.3ZM 428.9 62.1C 428.9 80.0964 414.096 94.9 396.1 94.9L 396.1 119.9C 427.904 119.9 453.9 93.9036 453.9 62.1L 428.9 62.1ZM 396.1 94.9L 45.3 94.9L 45.3 119.9L 396.1 119.9L 396.1 94.9ZM 45.3 94.9C 27.3036 94.9 12.5 80.0964 12.5 62.1L -12.5 62.1C -12.5 93.9036 13.4964 119.9 45.3 119.9L 45.3 94.9ZM 12.5 62.1L 12.5 45.3L -12.5 45.3L -12.5 62.1L 12.5 62.1ZM 12.5 45.3C 12.5 27.3036 27.3036 12.5 45.3 12.5L 45.3 -12.5C 13.4964 -12.5 -12.5 13.4964 -12.5 45.3L 12.5 45.3ZM 45.3 12.5L 396.1 12.5L 396.1 -12.5L 45.3 -12.5L 45.3 12.5ZM 396.1 12.5C 414.096 12.5 428.9 27.3036 428.9 45.3L 453.9 45.3C 453.9 13.4964 427.904 -12.5 396.1 -12.5L 396.1 12.5Z"/>
</defs>
</svg>
